<svg width="42" height="42" viewBox="0 0 42 42" fill="none" xmlns="http://www.w3.org/2000/svg">
<path opacity="0.2" d="M0 10C0 4.47715 4.47715 0 10 0H32C37.5228 0 42 4.47715 42 10V32C42 37.5228 37.5228 42 32 42H10C4.47715 42 0 37.5228 0 32V10Z" fill="#F3BA2F"/>
<path fill-rule="evenodd" clip-rule="evenodd" d="M17.1175 19.4038L21.0019 15.521L24.888 19.4069L27.147 17.1464L21.0019 11L14.8569 17.1449L17.1175 19.4038ZM11 21.0003L13.2597 18.7407L15.5195 21.0003L13.2597 23.26L11 21.0003ZM21.002 26.4806L17.1175 22.5962L14.8538 24.8536L14.8569 24.8567L21.002 31L27.147 24.8536L27.1486 24.852L24.888 22.5947L21.002 26.4806ZM26.4806 21.0009L28.7403 18.7412L31.0001 21.0009L28.7403 23.2606L26.4806 21.0009ZM21.002 18.7056L23.2941 20.9992H23.2957L23.2941 21.0008L21.002 23.2945L18.7098 21.004L18.7066 20.9992L18.7098 20.9961L19.1111 20.5948L19.3069 20.4005L21.002 18.7056Z" fill="#F3BA2F"/>
</svg>
