<svg width="13" height="14" viewBox="0 0 13 14" fill="none" xmlns="http://www.w3.org/2000/svg">
<g clip-path="url(#clip0_208_1215)">
<path d="M9.71751 10.2175C8.79158 10.9233 7.66411 11.3143 6.50001 11.3333C2.70834 11.3333 0.541672 6.99997 0.541672 6.99997C1.21545 5.74433 2.14995 4.6473 3.28251 3.78247M5.36251 2.79664C5.73535 2.70937 6.11708 2.66574 6.50001 2.66664C10.2917 2.66664 12.4583 6.99997 12.4583 6.99997C12.1295 7.61509 11.7374 8.1942 11.2883 8.72789M7.64834 8.14831C7.49957 8.30796 7.32017 8.43602 7.12084 8.52483C6.92151 8.61365 6.70633 8.66141 6.48814 8.66525C6.26995 8.6691 6.05322 8.62897 5.85088 8.54724C5.64854 8.46551 5.46473 8.34386 5.31042 8.18956C5.15611 8.03525 5.03447 7.85144 4.95274 7.6491C4.87101 7.44676 4.83087 7.23003 4.83472 7.01184C4.83857 6.79365 4.88633 6.57847 4.97515 6.37914C5.06396 6.17981 5.19202 6.00041 5.35167 5.85164" stroke="#EAB96B" stroke-width="1.08333" stroke-linecap="round" stroke-linejoin="round"/>
<path d="M0.541672 1.04163L12.4583 12.9583" stroke="#EAB96B" stroke-width="1.08333" stroke-linecap="round" stroke-linejoin="round"/>
</g>
<defs>
<clipPath id="clip0_208_1215">
<rect width="13" height="13" fill="white" transform="translate(0 0.5)"/>
</clipPath>
</defs>
</svg>
